<?xml version="1.0" encoding="UTF-8" standalone="no"?>
<!-- Created with Inkscape (http://www.inkscape.org/) -->

<svg
   xmlns:dc="http://purl.org/dc/elements/1.1/"
   xmlns:cc="http://creativecommons.org/ns#"
   xmlns:rdf="http://www.w3.org/1999/02/22-rdf-syntax-ns#"
   xmlns:svg="http://www.w3.org/2000/svg"
   xmlns="http://www.w3.org/2000/svg"
   xmlns:xlink="http://www.w3.org/1999/xlink"
   xmlns:sodipodi="http://sodipodi.sourceforge.net/DTD/sodipodi-0.dtd"
   xmlns:inkscape="http://www.inkscape.org/namespaces/inkscape"
   width="210mm"
   height="297mm"
   viewBox="0 0 210 297"
   version="1.1"
   id="svg3631"
   inkscape:version="0.92.4 (5da689c313, 2019-01-14)"
   sodipodi:docname="snow flake 4.svg">
  <defs
     id="defs3625">
    <clipPath
       clipPathUnits="userSpaceOnUse"
       id="clipPath18">
      <path
         d="M 0,600.949 H 847.559 V 0 H 0 Z"
         id="path16"
         inkscape:connector-curvature="0" />
    </clipPath>
    <linearGradient
       id="a"
       x1="104.73"
       x2="494.51999"
       y1="335.72"
       y2="895.84003"
       gradientUnits="userSpaceOnUse">
      <stop
         stop-color="#e00"
         offset="0"
         id="stop2" />
      <stop
         stop-color="#9a0000"
         offset="1"
         id="stop4" />
    </linearGradient>
    <clipPath
       id="SVGID_6_-19-1-2">
      <use
         id="use35-7-6-6"
         overflow="visible"
         xlink:href="#SVGID_5_"
         style="overflow:visible"
         x="0"
         y="0"
         width="100%"
         height="100%" />
    </clipPath>
    <linearGradient
       id="aa"
       x1="333.62"
       x2="410.39001"
       y1="593.71002"
       y2="708.62"
       gradientTransform="matrix(0.24508723,0,0,0.24508723,-385.82167,436.20492)"
       gradientUnits="userSpaceOnUse">
      <stop
         stop-color="#fff"
         offset="0"
         id="stop27" />
      <stop
         stop-color="#72d8db"
         offset="1"
         id="stop29" />
    </linearGradient>
    <linearGradient
       id="ab"
       x1="183.97"
       x2="242.96001"
       y1="492.26001"
       y2="608.32001"
       gradientTransform="matrix(0.24508723,0,0,0.24508723,-385.82167,436.20492)"
       gradientUnits="userSpaceOnUse"
       xlink:href="#z" />
    <linearGradient
       id="z">
      <stop
         stop-color="#4d4d4d"
         offset="0"
         id="stop7" />
      <stop
         stop-color="#1f1f1f"
         offset="1"
         id="stop9" />
    </linearGradient>
    <linearGradient
       id="ac"
       x1="588.21997"
       x2="645.09003"
       y1="190.97"
       y2="314.20999"
       gradientTransform="matrix(0.24508723,0,0,0.24508723,-385.82167,511.75796)"
       gradientUnits="userSpaceOnUse"
       xlink:href="#z" />
    <linearGradient
       id="ad"
       x1="694.64001"
       x2="660"
       y1="487.67001"
       y2="478.38"
       gradientTransform="matrix(0.24508723,0,0,0.24508723,-385.82167,511.75796)"
       gradientUnits="userSpaceOnUse"
       xlink:href="#b" />
    <linearGradient
       id="b">
      <stop
         stop-color="#ff2a2a"
         offset="0"
         id="stop12" />
      <stop
         stop-color="#a42727"
         offset="1"
         id="stop14" />
    </linearGradient>
    <linearGradient
       id="ae"
       x1="962.19"
       x2="924.15002"
       y1="549.27002"
       y2="545.97998"
       gradientTransform="matrix(0.24508723,0,0,0.24508723,-385.82167,511.75796)"
       gradientUnits="userSpaceOnUse"
       xlink:href="#b" />
    <linearGradient
       id="af"
       x1="706.72998"
       x2="669.69"
       y1="773.96997"
       y2="765.40002"
       gradientUnits="userSpaceOnUse"
       xlink:href="#a-6"
       gradientTransform="matrix(0.24508723,0,0,0.24508723,-385.82167,436.20492)" />
    <linearGradient
       id="a-6">
      <stop
         stop-color="#fff"
         offset="0"
         id="stop22" />
      <stop
         stop-color="#b7fdff"
         offset="1"
         id="stop24" />
    </linearGradient>
    <linearGradient
       id="ag"
       x1="758.60999"
       x2="690.67999"
       y1="659.78998"
       y2="690.51001"
       gradientUnits="userSpaceOnUse"
       xlink:href="#a-6"
       gradientTransform="matrix(0.24508723,0,0,0.24508723,-385.82167,436.20492)" />
    <linearGradient
       id="ai"
       x1="513.15997"
       x2="483.25"
       y1="274.92001"
       y2="255.23"
       gradientTransform="matrix(0.24508723,0,0,0.24508723,-380.51347,455.38989)"
       gradientUnits="userSpaceOnUse"
       xlink:href="#a-6" />
    <linearGradient
       id="al"
       x1="331.45999"
       x2="323.88"
       y1="311.75"
       y2="303.04001"
       gradientUnits="userSpaceOnUse"
       xlink:href="#b"
       gradientTransform="matrix(0.24508723,0,0,0.24508723,-378.88937,506.04599)" />
    <linearGradient
       id="am"
       x1="220.92999"
       x2="226.08"
       y1="297.32001"
       y2="304.39001"
       gradientUnits="userSpaceOnUse"
       xlink:href="#b"
       gradientTransform="matrix(0.24508723,0,0,0.24508723,-378.88937,506.04599)" />
    <linearGradient
       id="an"
       x1="216.22"
       x2="220.34"
       y1="298.26999"
       y2="305.09"
       gradientUnits="userSpaceOnUse"
       xlink:href="#b"
       gradientTransform="matrix(0.24508723,0,0,0.24508723,-378.88937,506.04599)" />
    <linearGradient
       id="ao"
       x1="235.50999"
       x2="228.84"
       y1="257.62"
       y2="257.62"
       gradientUnits="userSpaceOnUse"
       xlink:href="#a-6"
       gradientTransform="matrix(0.24508723,0,0,0.24508723,-378.88937,506.04599)" />
    <linearGradient
       id="ap"
       x1="241.75"
       x2="236.03999"
       y1="283.56"
       y2="260.26999"
       gradientUnits="userSpaceOnUse"
       gradientTransform="matrix(0.21408859,0,0,0.23253631,-371.60072,509.5826)">
      <stop
         stop-color="#000080"
         offset="0"
         id="stop46" />
      <stop
         stop-color="#2a97ff"
         offset="1"
         id="stop48" />
    </linearGradient>
    <linearGradient
       id="aq"
       x1="310.06"
       x2="340.95001"
       y1="231.14"
       y2="217.48"
       gradientUnits="userSpaceOnUse"
       xlink:href="#a-6"
       gradientTransform="matrix(0.24508723,0,0,0.24508723,-378.88937,506.04599)" />
    <linearGradient
       id="ar"
       x1="347.25"
       x2="346.59"
       y1="181.92"
       y2="208.44"
       gradientUnits="userSpaceOnUse"
       xlink:href="#a-6"
       gradientTransform="matrix(0.24508723,0,0,0.24508723,-378.88937,506.04599)" />
    <linearGradient
       id="as"
       x1="336.45999"
       x2="338.78"
       y1="291.32999"
       y2="265.57001"
       gradientUnits="userSpaceOnUse"
       xlink:href="#a-6"
       gradientTransform="matrix(0.24508723,0,0,0.24508723,-378.88937,506.04599)" />
    <clipPath
       id="SVGID_6_-19-1-0-6-0-2-2">
      <use
         id="use35-7-6-13-0-8-8-2"
         overflow="visible"
         xlink:href="#SVGID_5_"
         style="overflow:visible"
         x="0"
         y="0"
         width="100%"
         height="100%" />
    </clipPath>
    <clipPath
       clipPathUnits="userSpaceOnUse"
       id="clipPath402">
      <path
         d="M 0,1090 H 1930 V 0 H 0 Z"
         id="path400"
         inkscape:connector-curvature="0" />
    </clipPath>
  </defs>
  <sodipodi:namedview
     id="base"
     pagecolor="#ffffff"
     bordercolor="#666666"
     borderopacity="1.0"
     inkscape:pageopacity="0.0"
     inkscape:pageshadow="2"
     inkscape:zoom="0.125"
     inkscape:cx="371.57064"
     inkscape:cy="462.80651"
     inkscape:document-units="mm"
     inkscape:current-layer="g1933"
     showgrid="false"
     showguides="true"
     inkscape:guide-bbox="true"
     inkscape:window-width="1920"
     inkscape:window-height="1001"
     inkscape:window-x="-9"
     inkscape:window-y="-9"
     inkscape:window-maximized="1"
     inkscape:snap-global="false">
    <sodipodi:guide
       position="72.922013,252.88982"
       orientation="0,1"
       id="guide4178"
       inkscape:locked="false" />
    <sodipodi:guide
       position="99.099147,43.94019"
       orientation="0,1"
       id="guide4180"
       inkscape:locked="false" />
  </sodipodi:namedview>
  <metadata
     id="metadata3628">
    <rdf:RDF>
      <cc:Work
         rdf:about="">
        <dc:format>image/svg+xml</dc:format>
        <dc:type
           rdf:resource="http://purl.org/dc/dcmitype/StillImage" />
        <dc:title></dc:title>
      </cc:Work>
    </rdf:RDF>
  </metadata>
  <g
     inkscape:label="Layer 1"
     inkscape:groupmode="layer"
     id="layer1">
    <g
       id="g11993"
       transform="translate(0.01320793,-14.655723)">
      <g
         id="g1507">
        <g
           id="g940"
           transform="matrix(3.9263952,0,0,3.9263952,174.47181,140.66585)">
          <g
             id="g3422"
             transform="translate(-49.146911,-11.698922)">
            <g
               transform="matrix(0.07056713,0,0,-0.07056713,-72.92885,43.660263)"
               id="g1933">
              <path
                 style="fill:#293751;stroke-width:5.4132328"
                 d="m 1359.7867,668.96917 c -1.9278,0.0576 -3.9648,-0.0829 -6.1784,-0.39584 -16.9354,-2.40043 -16.0159,-24.61329 2.7423,-65.28696 l 14.3062,-31.02459 -33.7004,3.46954 c -18.5476,1.91494 -37.0484,3.69961 -41.1015,3.9652 -4.0549,0.26559 -10.0926,-3.69285 -13.4141,-8.82188 -9.8974,-15.27715 2.3131,-21.33321 55.0771,-27.22517 l 48.6676,-5.41831 22.2688,-47.87497 c 33.7808,-72.70478 43.6314,-96.93411 39.3835,-96.7395 -24.3069,1.11647 -149.6403,21.67656 -152.875,25.07682 -2.365,2.48667 -12.0738,23.2396 -21.6079,46.12407 -18.3511,44.04341 -26.9451,52.34765 -40.2754,39.01925 -7.3218,-7.30109 -7.3605,-10.27668 -0.1984,-26.82764 4.4305,-10.24285 11.7506,-27.14562 16.2555,-37.56618 9.4545,-21.86432 10.6365,-21.47356 -39.8458,-13.28263 -38.3299,6.22011 -49.5265,1.8455 -49.5265,-19.29488 0,-15.14171 8.8991,-18.77879 55.4736,-22.73214 20.0976,-1.70515 36.5421,-3.97191 36.5421,-5.02076 0,-1.04884 -10.8317,-16.62199 -24.0862,-34.62612 -14.1576,-19.23387 -22.8226,-36.10451 -20.9801,-40.90369 6.2852,-16.38352 26.0688,-4.70614 53.0949,31.35438 14.939,19.93429 28.408,37.45284 29.9669,38.92117 2.9744,2.81323 151.2579,-10.87209 154.6591,-14.27235 1.0876,-1.08762 -19.1205,-29.26013 -44.901,-62.5786 -51.2246,-66.19877 -46.4052,-63.66126 -105.529,-55.11007 -40.7764,5.89875 -53.0618,3.31903 -53.0618,-11.13434 0,-13.30308 4.0445,-15.15365 41.2335,-18.99705 48.4381,-5.00562 48.0828,-4.33228 20.6831,-39.61472 -28.686,-36.94195 -30.944,-56.38899 -6.8393,-59.17515 12.3066,-1.42258 17.9339,3.23615 37.5992,31.12442 12.723,18.03961 24.6554,32.80759 26.498,32.80759 1.8439,0 8.9851,-14.00337 15.8921,-31.12265 13.5838,-33.66359 24.0475,-45.58122 35.9802,-41.00195 11.7062,4.49131 9.2269,19.30162 -10.9361,65.02141 l -18.5685,42.02703 25.0111,35.31956 c 13.747,19.41997 34.562,48.37907 46.2557,64.36166 l 21.2446,29.07415 20.0882,-48.00688 c 11.04,-26.40303 24.4178,-59.45087 29.7357,-73.41357 l 9.6807,-25.37453 -30.0992,-41.23368 c -30.5709,-41.86114 -33.9129,-56.920096 -12.522,-56.794888 7.9062,0.04256 18.1881,9.517148 32.2467,29.767708 11.3429,16.34118 22.3142,29.70338 24.3832,29.70338 2.0693,0 9.4417,-14.63095 16.3878,-32.54369 6.9462,-17.91439 16.2335,-36.190818 20.6498,-40.605984 h 0.033 c 10.1984,-10.198878 15.2227,-10.119307 25.8039,0.461817 11.3288,11.330602 11.0881,13.133888 -7.7643,54.714227 -8.9583,19.75658 -15.5885,36.64933 -14.7027,37.53229 0.884,0.88473 18.434,-0.7561 38.987,-3.66746 31.2032,-4.41848 38.742,-3.94318 45.6278,2.94175 14.227,14.22671 -2.939,23.8758 -53.8217,30.23129 -25.1959,3.14641 -47.4929,7.38908 -49.5266,9.4494 -4.9743,5.03766 -64.647,137.52151 -62.7425,139.29429 0.8254,0.7697 14.8799,-0.61233 31.2557,-3.03811 16.3738,-2.42921 50.8527,-7.25039 76.619,-10.73849 l 46.8505,-6.34366 17.6763,-41.46542 c 20.3013,-47.67027 27.847,-57.80649 39.7798,-53.22721 12.0319,4.61817 10.6577,19.14247 -5.2203,55.04409 -7.5695,17.11597 -12.9501,31.91103 -11.9935,32.87522 0.9655,0.9643 19.4927,-0.6919 41.2007,-3.69962 42.1668,-5.8446 54.9119,-1.93524 54.9119,16.84876 0,15.31599 -11.0952,20.47555 -52.7644,24.58284 -21.5858,2.1263 -39.2513,4.88029 -39.2513,6.11181 0,1.23151 9.9475,15.41932 22.1036,31.52026 22.4379,29.71864 25.6924,47.20503 9.3504,50.35156 -8.2499,1.59011 -22.388,-13.61096 -61.2226,-65.9467 l -10.8372,-14.60387 -70.3746,6.37735 c -38.7038,3.51696 -73.4271,8.02174 -77.1809,9.97731 -4.6733,2.43595 8.0902,22.81515 40.5068,64.69154 46.7586,60.40319 47.5688,61.08999 66.3768,58.21589 65.5153,-10.0077 86.4715,-10.32404 89.9013,-1.38713 6.0655,15.80833 -8.0687,24.2868 -46.9496,28.11667 -20.606,2.03165 -37.467,4.79071 -37.467,6.1457 0,1.35501 10.9855,16.41563 24.3832,33.469 25.3395,32.25271 28.7859,42.64612 17.8414,53.591 -13.1993,13.19982 -25.699,6.10173 -50.5177,-28.67829 -13.8087,-19.3523 -25.7362,-35.1877 -26.4978,-35.1877 -0.7582,0 -8.0784,17.05507 -16.2556,37.896 -12.684,32.33054 -16.7813,37.89771 -27.9187,37.89771 -18.4997,0 -17.1347,-17.50165 5.1543,-66.41021 l 18.205,-39.91243 -40.1104,-56.46509 c -22.055,-31.04998 -43.2988,-59.68761 -47.2136,-63.63422 -5.8922,-5.9393 -11.9142,4.77542 -34.9561,62.24707 -15.3112,38.1853 -27.8195,71.59338 -27.8195,74.20697 0.012,2.61358 12.3728,21.43639 27.4891,41.82905 15.118,20.39266 26.6486,41.37232 25.6388,46.65191 -3.4509,17.92457 -22.3371,10.31052 -43.3151,-17.44583 -11.2385,-14.86947 -22.5858,-27.73605 -25.2093,-28.61232 -2.6237,-0.87457 -10.2271,13.04082 -16.9164,30.92479 -12.1086,32.38127 -19.4118,42.74762 -32.9073,43.15022 z"
                 id="path5241"
                 inkscape:connector-curvature="0" />
            </g>
          </g>
        </g>
      </g>
    </g>
  </g>
</svg>
